<?xml version="1.0" encoding="UTF-8"?><svg xmlns="http://www.w3.org/2000/svg" viewBox="0 0 535.27 545.49"><defs><style>.cls-1,.cls-2,.cls-3{fill:#000;}.cls-1,.cls-4{stroke-width:0px;}.cls-2{stroke:#000;}.cls-2,.cls-3{stroke-miterlimit:10;stroke-width:21px;}.cls-3{stroke:#fff;}.cls-4{fill:#fff;}</style></defs><g id="Layer_7"><path class="cls-2" d="M509.44,421.24c-3.85,18-17.76,32.13-35.68,36.35-54.52,12.83-123.77,23.76-204.14,23.97-82.31.21-153.12-10.9-208.54-23.93-18-4.23-31.93-18.5-35.69-36.61-8.02-38.59-14.38-85.28-14.86-138.33-.53-58.18,6.14-109.07,14.66-150.41,3.84-18.61,18.36-33.13,36.97-37,56.42-11.73,126.24-21.2,206.33-21.11,79.2.09,148.3,9.51,204.26,21.16,18.51,3.85,32.98,18.25,36.9,36.74,8.76,41.3,15.68,92.49,15.08,151.19-.54,53.06-7.11,99.65-15.29,137.98Z"/><line class="cls-2" x1="138.37" y1="9.4" x2="268.48" y2="74.17"/><line class="cls-2" x1="397.75" y1="9.4" x2="267.64" y2="74.17"/><path class="cls-3" d="M428.46,384.39c-2.56,11.97-11.81,21.37-23.73,24.18-36.26,8.53-82.32,15.8-135.77,15.94-54.75.14-101.84-7.25-138.7-15.92-11.97-2.82-21.24-12.3-23.74-24.35-5.33-25.67-9.56-56.72-9.88-92-.35-38.7,4.08-72.54,9.75-100.04,2.55-12.38,12.21-22.03,24.59-24.61,37.53-7.8,83.96-14.1,137.23-14.04,52.68.06,98.63,6.32,135.85,14.07,12.31,2.56,21.94,12.14,24.54,24.44,5.82,27.47,10.43,61.52,10.03,100.56-.36,35.29-4.73,66.27-10.17,91.77Z"/><line class="cls-3" x1="181.66" y1="110.47" x2="268.2" y2="153.55"/><line class="cls-3" x1="354.17" y1="110.47" x2="267.64" y2="153.55"/><path class="cls-4" d="M175.94,259.11h-26.28l.47-3.18h26.4l-.59,3.18ZM164.86,253.57h-14.37l.59-3.18h14.38l-.59,3.18ZM165.92,325.09h-2.83l.47-3.18h2.83l-.47,3.18ZM168.98,319.56h-5.07l.59-3.18h4.95l-.47,3.18ZM210.93,253.57h-46.07l.59-3.18h45.96l-.47,3.18ZM187.72,314.02h-22.86l.47-3.06h22.86l-.47,3.06ZM188.54,308.6h-22.86l.47-3.18h22.86l-.47,3.18ZM185.95,325.09h-20.03l.47-3.18h20.03l-.47,3.18ZM182.89,303.06h-16.38l.59-3.18h16.38l-.59,3.18ZM178.65,297.52h-11.2l.47-3.06h11.2l-.47,3.06ZM176.53,292.1h-8.25l.47-3.18h8.25l-.47,3.18ZM186.78,319.56h-17.79l.47-3.18h17.79l-.47,3.18ZM172.05,286.56h-2.83l.47-3.18h2.83l-.47,3.18ZM170.87,281.02h-.83l.47-3.06h.82l-.47,3.06ZM193.73,275.6h-22.86l.59-3.18h22.86l-.59,3.18ZM192.9,281.02h-22.04l.47-3.06h22.04l-.47,3.06ZM175.82,270.07h-4.01l.47-3.18h4.01l-.47,3.18ZM192.08,286.56h-20.03l.47-3.18h20.03l-.47,3.18ZM177.59,264.53h-4.95l.47-3.06h4.95l-.47,3.06ZM194.67,270.07h-18.85l.47-3.18h18.85l-.47,3.18ZM220.36,259.11h-44.42l.59-3.18h44.31l-.47,3.18ZM191.14,292.1h-14.61l.47-3.18h14.61l-.47,3.18ZM195.5,264.53h-17.91l.47-3.06h17.91l-.47,3.06ZM190.31,297.52h-11.67l.47-3.06h11.67l-.47,3.06ZM189.37,303.06h-6.48l.59-3.18h6.48l-.59,3.18ZM221.07,253.57h-10.13l.47-3.18h10.25l-.59,3.18Z"/><path class="cls-4" d="M254.06,253.57h-24.63l.59-3.18h24.51l-.47,3.18ZM255.24,259.11h-24.75l.47-3.18h24.75l-.47,3.18ZM256.06,264.53h-24.75l.47-3.06h24.75l-.47,3.06ZM257.01,270.07h-23.8l.47-3.18h23.92l-.59,3.18ZM258.07,275.6h-23.69l.47-3.18h23.68l-.47,3.18ZM258.89,281.02h-23.69l.47-3.06h23.69l-.47,3.06ZM259.95,286.56h-23.8l.59-3.18h23.68l-.47,3.18ZM261.01,292.1h-22.98l.47-3.18h23.09l-.59,3.18ZM261.96,297.52h-22.86l.47-3.06h22.86l-.47,3.06ZM281.16,303.06h-41.12l.47-3.18h41.12l-.47,3.18ZM258.42,308.6h-17.44l.59-3.18h17.32l-.47,3.18ZM255.24,314.02h-13.32l.47-3.06h13.32l-.47,3.06ZM267.14,319.56h-24.27l.59-3.18h24.27l-.59,3.18ZM264.31,325.09h-20.39l.47-3.18h20.39l-.47,3.18ZM275.86,314.02h-20.62l.47-3.06h20.62l-.47,3.06ZM279.4,308.6h-20.97l.47-3.18h20.97l-.47,3.18ZM270.44,325.09h-6.13l.47-3.18h6.25l-.59,3.18ZM277.04,297.52h-11.43l.47-3.06h11.43l-.47,3.06ZM273.27,319.56h-6.13l.59-3.18h6.01l-.47,3.18ZM274.8,292.1h-6.48l.59-3.18h6.48l-.59,3.18ZM290.35,286.56h-18.38l.47-3.18h18.5l-.59,3.18ZM292.95,281.02h-18.26l.59-3.06h18.15l-.47,3.06ZM287.64,292.1h-12.84l.59-3.18h12.73l-.47,3.18ZM284.93,297.52h-7.9l.47-3.06h7.89l-.47,3.06ZM296.72,275.6h-19.09l.47-3.18h19.09l-.47,3.18ZM299.31,270.07h-19.09l.47-3.18h19.09l-.47,3.18ZM282.34,303.06h-1.18l.47-3.18h1.18l-.47,3.18ZM302.26,264.53h-19.44l.47-3.06h19.44l-.47,3.06ZM304.85,259.11h-19.21l.59-3.18h19.09l-.47,3.18ZM307.56,253.57h-19.32l.59-3.18h19.21l-.47,3.18Z"/><path class="cls-4" d="M314.04,308.6h-11.08l.59-3.18h11.08l-.59,3.18ZM310.74,314.02h-4.01l.47-3.06h4.01l-.47,3.06ZM322.88,319.56h-12.37l.47-3.18h12.37l-.47,3.18ZM356.81,314.02h-46.07l.47-3.06h46.07l-.47,3.06ZM316.87,275.6h-3.18l.47-3.18h3.18l-.47,3.18ZM328.77,308.6h-14.73l.59-3.18h14.61l-.47,3.18ZM329.71,270.07h-15.08l.47-3.18h15.08l-.47,3.18ZM324.88,281.02h-10.13l.47-3.06h10.13l-.47,3.06ZM346.8,275.6h-29.93l.47-3.18h29.93l-.47,3.18ZM331.36,264.53h-14.02l.47-3.06h14.14l-.59,3.06ZM325.94,286.56h-7.54l.59-3.18h7.42l-.47,3.18ZM361.88,325.09h-42.07l.47-3.18h42.18l-.59,3.18ZM329.83,259.11h-8.96l.59-3.18h8.84l-.47,3.18ZM368.83,319.56h-45.96l.47-3.18h45.96l-.47,3.18ZM369.78,281.02h-44.9l.47-3.06h44.89l-.47,3.06ZM371.9,286.56h-45.96l.47-3.18h45.96l-.47,3.18ZM364.83,253.57h-38.41l.47-3.18h38.41l-.47,3.18ZM330.3,292.1h-1.65l.47-3.18h1.77l-.59,3.18ZM337.61,270.07h-7.9l.47-3.18h7.9l-.47,3.18ZM375.79,259.11h-45.96l.47-3.18h46.07l-.59,3.18ZM376.37,292.1h-46.07l.59-3.18h45.96l-.47,3.18ZM340.2,264.53h-8.84l.59-3.06h8.72l-.47,3.06ZM362.12,248.03h-20.15l.47-3.06h20.15l-.47,3.06ZM378.5,297.52h-27.69l.47-3.06h27.69l-.47,3.06ZM377.44,314.02h-20.62l.47-3.06h20.74l-.59,3.06ZM360.11,308.6h-2l.47-3.18h2l-.47,3.18ZM382.86,303.06h-22.86l.47-3.18h22.86l-.47,3.18ZM381.09,308.6h-20.97l.47-3.18h20.97l-.47,3.18ZM364.95,248.03h-2.83l.47-3.06h2.83l-.47,3.06ZM377.44,264.53h-15.08l.47-3.06h15.08l-.47,3.06ZM379.67,253.57h-14.85l.47-3.18h14.96l-.59,3.18ZM372.01,319.56h-3.18l.47-3.18h3.18l-.47,3.18ZM378.14,286.56h-6.24l.47-3.18h6.24l-.47,3.18ZM384.27,259.11h-8.48l.59-3.18h8.49l-.59,3.18ZM382.86,292.1h-6.48l.47-3.18h6.48l-.47,3.18ZM386.27,264.53h-8.84l.47-3.06h8.96l-.59,3.06ZM383.8,297.52h-5.3l.47-3.06h5.3l-.47,3.06Z"/><path class="cls-1" d="M11.35,517.1v-7.91h24.97v7.91h-7.53v27.84h-10.01v-27.84h-7.43Z"/><path class="cls-1" d="M61.33,509.18v7.61h-12.75v6.11h11.94v7.31h-11.94v7.11h13.24v7.61h-23.24v-35.76h22.76Z"/><path class="cls-1" d="M75.48,509.18v28.14h12.32v7.61h-22.33v-35.76h10.01Z"/><path class="cls-1" d="M113.15,509.18v7.61h-12.75v6.11h11.94v7.31h-11.94v7.11h13.24v7.61h-23.24v-35.76h22.76Z"/><path class="cls-1" d="M124.82,509.18l4.04,26.94h.11l4.04-26.94h10.65l-8.29,35.76h-12.91l-8.12-35.76h10.49Z"/><path class="cls-1" d="M154.9,509.18v35.76h-10.01v-35.76h10.01Z"/><path class="cls-1" d="M174.22,518.65c0-1.07-.23-1.98-.7-2.73-.47-.75-1.18-1.13-2.15-1.13-1.08,0-1.87.33-2.37.98-.5.65-.75,1.38-.75,2.18,0,1.17.4,2.1,1.21,2.78.81.68,1.82,1.28,3.04,1.78s2.53,1.01,3.93,1.53,2.71,1.19,3.93,2.03c1.22.83,2.23,1.93,3.04,3.28.81,1.35,1.21,3.11,1.21,5.28,0,3.81-1.17,6.57-3.5,8.29-2.33,1.72-5.7,2.58-10.12,2.58-2.08,0-3.92-.16-5.51-.48-1.6-.32-2.94-.87-4.04-1.65-1.09-.78-1.93-1.81-2.5-3.08-.57-1.27-.86-2.84-.86-4.71v-1.25h9.68v.85c0,1.54.3,2.61.91,3.23.61.62,1.4.93,2.37.93,1.04,0,1.84-.33,2.39-1,.56-.67.83-1.49.83-2.45,0-1.17-.39-2.09-1.16-2.78-.77-.68-1.74-1.27-2.91-1.75-1.17-.48-2.43-.98-3.79-1.48-1.36-.5-2.63-1.15-3.79-1.95-1.17-.8-2.13-1.85-2.91-3.15-.77-1.3-1.16-3-1.16-5.11,0-3.64,1.04-6.41,3.12-8.31,2.08-1.9,5.24-2.85,9.47-2.85s7.54.88,9.5,2.63c1.95,1.75,2.93,4.55,2.93,8.39h-9.36v-.85Z"/><path class="cls-1" d="M197.78,509.18v35.76h-10.01v-35.76h10.01Z"/><path class="cls-1" d="M201.71,518.52c.47-2.35,1.24-4.27,2.31-5.76,1.08-1.49,2.49-2.57,4.25-3.26,1.76-.68,3.91-1.03,6.46-1.03s4.7.34,6.46,1.03c1.76.68,3.17,1.77,4.25,3.26,1.08,1.49,1.85,3.41,2.31,5.76.47,2.35.7,5.2.7,8.54s-.23,6.19-.7,8.54c-.47,2.35-1.24,4.27-2.31,5.76-1.08,1.49-2.49,2.55-4.25,3.18-1.76.63-3.91.95-6.46.95s-4.7-.32-6.46-.95c-1.76-.63-3.17-1.69-4.25-3.18-1.08-1.48-1.85-3.41-2.31-5.76-.47-2.35-.7-5.2-.7-8.54s.23-6.18.7-8.54ZM211.45,533.05c.07,1.59.22,2.85.46,3.78.23.94.57,1.59,1.02,1.95.45.37,1.05.55,1.8.55s1.35-.18,1.8-.55c.45-.37.79-1.02,1.02-1.95.23-.93.39-2.19.46-3.78.07-1.59.11-3.58.11-5.98s-.04-4.4-.11-5.98c-.07-1.59-.22-2.85-.46-3.78-.23-.93-.57-1.59-1.02-1.95-.45-.37-1.05-.55-1.8-.55s-1.35.18-1.8.55-.79,1.02-1.02,1.95c-.23.94-.39,2.2-.46,3.78-.07,1.59-.11,3.58-.11,5.98s.04,4.4.11,5.98Z"/><path class="cls-1" d="M243.25,509.18l6.46,22.04h.11v-22.04h9.36v35.76h-10.98l-6.67-22.09h-.11v22.09h-9.36v-35.76h11.19Z"/><path class="cls-1" d="M292.86,518.65c0-1.07-.23-1.98-.7-2.73-.47-.75-1.18-1.13-2.15-1.13-1.08,0-1.87.33-2.37.98-.5.65-.75,1.38-.75,2.18,0,1.17.4,2.1,1.21,2.78.81.68,1.82,1.28,3.04,1.78s2.53,1.01,3.93,1.53,2.71,1.19,3.93,2.03c1.22.83,2.23,1.93,3.04,3.28.81,1.35,1.21,3.11,1.21,5.28,0,3.81-1.17,6.57-3.5,8.29-2.33,1.72-5.7,2.58-10.12,2.58-2.08,0-3.92-.16-5.51-.48-1.6-.32-2.94-.87-4.04-1.65-1.09-.78-1.93-1.81-2.5-3.08-.57-1.27-.86-2.84-.86-4.71v-1.25h9.68v.85c0,1.54.3,2.61.91,3.23.61.62,1.4.93,2.37.93,1.04,0,1.84-.33,2.39-1,.56-.67.83-1.49.83-2.45,0-1.17-.39-2.09-1.16-2.78-.77-.68-1.74-1.27-2.91-1.75-1.17-.48-2.43-.98-3.79-1.48-1.36-.5-2.63-1.15-3.79-1.95-1.17-.8-2.13-1.85-2.91-3.15-.77-1.3-1.16-3-1.16-5.11,0-3.64,1.04-6.41,3.12-8.31,2.08-1.9,5.24-2.85,9.47-2.85s7.54.88,9.5,2.63c1.95,1.75,2.93,4.55,2.93,8.39h-9.36v-.85Z"/><path class="cls-1" d="M316.42,509.18v35.76h-10.01v-35.76h10.01Z"/><path class="cls-1" d="M334.72,509.18l4.03,21.18h.11l4.03-21.18h14.31v35.76h-9.36v-26.64h-.11l-5.33,26.64h-7.21l-5.33-26.64h-.11v26.64h-9.36v-35.76h14.31Z"/><path class="cls-1" d="M371.14,534.97c0,1.74.27,2.9.81,3.48.54.58,1.27.88,2.21.88s1.67-.29,2.21-.88c.54-.58.81-1.74.81-3.48v-25.79h10.01v23.44c0,2.5-.29,4.59-.86,6.26-.57,1.67-1.41,3-2.5,4.01-1.09,1-2.45,1.69-4.06,2.05s-3.48.55-5.6.55-3.94-.18-5.57-.55c-1.63-.37-3-1.05-4.09-2.05-1.09-1-1.93-2.34-2.5-4.01-.57-1.67-.86-3.76-.86-6.26v-23.44h10.01v25.79Z"/><path class="cls-1" d="M401.49,509.18v28.14h12.32v7.61h-22.33v-35.76h10.01Z"/><path class="cls-1" d="M435.28,509.18l9.36,35.76h-10.65l-1.02-6.26h-7.96l-1.02,6.26h-10.49l9.2-35.76h12.59ZM428.93,516.49l-2.74,15.17h5.6l-2.74-15.17h-.11Z"/><path class="cls-1" d="M440.98,517.1v-7.91h24.97v7.91h-7.53v27.84h-10.01v-27.84h-7.42Z"/><path class="cls-1" d="M467.78,518.52c.47-2.35,1.24-4.27,2.31-5.76,1.08-1.49,2.49-2.57,4.25-3.26,1.76-.68,3.91-1.03,6.46-1.03s4.7.34,6.46,1.03c1.76.68,3.17,1.77,4.25,3.26,1.08,1.49,1.85,3.41,2.31,5.76.47,2.35.7,5.2.7,8.54s-.23,6.19-.7,8.54c-.47,2.35-1.24,4.27-2.31,5.76-1.08,1.49-2.49,2.55-4.25,3.18-1.76.63-3.91.95-6.46.95s-4.7-.32-6.46-.95c-1.76-.63-3.17-1.69-4.25-3.18-1.08-1.48-1.85-3.41-2.31-5.76-.47-2.35-.7-5.2-.7-8.54s.23-6.18.7-8.54ZM477.52,533.05c.07,1.59.22,2.85.46,3.78.23.94.57,1.59,1.02,1.95.45.37,1.05.55,1.8.55s1.35-.18,1.8-.55c.45-.37.79-1.02,1.02-1.95.23-.93.39-2.19.46-3.78.07-1.59.11-3.58.11-5.98s-.04-4.4-.11-5.98c-.07-1.59-.22-2.85-.46-3.78-.23-.93-.57-1.59-1.02-1.95-.45-.37-1.05-.55-1.8-.55s-1.35.18-1.8.55-.79,1.02-1.02,1.95c-.23.94-.39,2.2-.46,3.78-.07,1.59-.11,3.58-.11,5.98s.04,4.4.11,5.98Z"/><path class="cls-1" d="M513.75,509.18c1.9,0,3.52.23,4.86.7,1.34.47,2.43,1.13,3.28,1.98.84.85,1.45,1.86,1.83,3.03.38,1.17.56,2.44.56,3.81,0,2.4-.52,4.34-1.55,5.81-1.03,1.47-2.69,2.37-4.98,2.7v.1c2.39.2,4.03.98,4.92,2.35.89,1.37,1.34,3.25,1.34,5.66v4.51c0,.5.02.98.05,1.43.04.45.09.86.16,1.23.07.37.16.65.27.85.14.2.29.39.43.58.14.18.38.36.7.53v.5h-10.6c-.25-.47-.44-1.02-.56-1.65-.12-.63-.21-1.27-.27-1.9-.05-.63-.09-1.24-.11-1.83-.02-.58-.03-1.06-.03-1.43v-2.4c0-1-.05-1.84-.16-2.5-.11-.67-.3-1.19-.56-1.58-.27-.38-.61-.65-1.02-.8-.41-.15-.92-.23-1.53-.23h-2.64v14.32h-10.01v-35.76h15.63ZM510.12,524.31c1.43,0,2.49-.39,3.17-1.18.68-.78,1.02-1.81,1.02-3.08,0-1.5-.33-2.57-1-3.2-.66-.63-1.75-.95-3.25-.95h-1.94v8.41h1.99Z"/></g></svg>